<?xml version="1.0" encoding="utf-8"?>
<!-- Generator: Adobe Illustrator 27.5.0, SVG Export Plug-In . SVG Version: 6.00 Build 0)  -->
<svg version="1.1" id="Layer_1" xmlns="http://www.w3.org/2000/svg" xmlns:xlink="http://www.w3.org/1999/xlink" x="0px" y="0px"
	 viewBox="0 0 800 800" style="enable-background:new 0 0 800 800;" xml:space="preserve">
<rect style="fill:#FFFFFF;" width="800" height="800"/>
<g>
	<path style="fill:#FFCE67;" d="M779.958,400.003c0,209.844-170.109,379.956-379.956,379.956
		c-209.849,0-379.96-170.111-379.96-379.956c0-209.841,170.111-379.963,379.96-379.963
		C609.849,20.041,779.958,190.163,779.958,400.003z"/>
	<g>
		<path style="fill:#E0915F;" d="M655.801,284.114H262.846l-0.489-0.813l-13.598-15.66l24.74-4.353l64.475-11.338l60.735-10.686
			l64.475-11.349l60.747-10.68l64.475-11.338l60.299-10.607l-0.076-0.489l-9.513-54.001l0.01-0.001l-0.977-5.52h-0.006l-0.567-3.235
			l-56.502,9.94l-60.748,10.685l-64.477,11.337l-60.733,10.688l-64.464,11.342l-60.746,10.675l-64.478,11.354l-14.119,2.482
			c-2.357-0.458-4.713-0.646-6.994-0.489l-15.185,1.034c-5.11,0.348-9.835,2.472-13.707,5.765l-10.743,1.89l-0.482,0.082
			l2.212,12.559c-0.602,2.323-0.942,4.751-0.942,7.243v84.904c0,8.518,3.683,16.1,9.389,20.983v1.822h2.425
			c2.965,1.96,6.328,3.269,9.939,3.695v301.632c0,8.603,6.963,15.57,15.567,15.57h442.39c8.592,0,15.563-6.967,15.563-15.57V351.388
			c0-1.043-0.105-2.063-0.304-3.048h15.364V284.114z"/>
	</g>
	<g>
		<g>
			<path style="fill:#2C2E36;" d="M145.354,324.726c0-8.602,6.962-15.572,15.566-15.572h442.391c8.59,0,15.563,6.97,15.563,15.572
				v302.278c0,8.604-6.973,15.572-15.563,15.572H160.92c-8.604,0-15.566-6.969-15.566-15.572V324.726z"/>
			<rect x="200.184" y="577.701" style="fill:#FBE1BA;" width="353.629" height="4.947"/>
			<rect x="458.073" y="582.648" style="fill:#FBE1BA;" width="4.964" height="39.572"/>
			<rect x="290.973" y="582.648" style="fill:#FBE1BA;" width="4.952" height="39.572"/>
			<path style="fill:#231F20;" d="M378.195,365.64c-49.779,0-90.131,40.366-90.131,90.129c0,49.773,40.352,90.127,90.131,90.127
				c49.772,0,90.121-40.353,90.121-90.127C468.315,406.006,427.967,365.64,378.195,365.64z M378.195,533.746
				c-43.063,0-77.979-34.92-77.979-77.977c0-43.06,34.916-77.972,77.979-77.972c43.056,0,77.97,34.911,77.97,77.972
				C456.165,498.826,421.251,533.746,378.195,533.746z"/>
			<path style="fill:#FBE1BA;" d="M289.698,455.77c0,48.797,39.701,88.492,88.497,88.492c48.792,0,88.487-39.695,88.487-88.492
				c0-48.801-39.694-88.495-88.487-88.495C329.399,367.275,289.698,406.969,289.698,455.77z M298.587,455.77
				c0-43.892,35.712-79.604,79.607-79.604c43.896,0,79.598,35.712,79.598,79.604c0,43.895-35.702,79.603-79.598,79.603
				C334.299,535.373,298.587,499.664,298.587,455.77z"/>
			<path style="fill:#525760;" d="M603.311,320.998H160.92c-2.056,0-3.729,1.674-3.729,3.729v302.278
				c0,1.551,0.955,2.883,2.303,3.438c21.343-69.867,65.778-131.131,125.424-176.861c1.18-50.479,42.519-91.197,93.276-91.197
				c21.26,0,40.818,7.223,56.531,19.228c34.377-8.704,70.61-13.433,108.095-13.433c21.854,0,43.305,1.607,64.218,4.656v-48.108
				C607.038,322.672,605.353,320.998,603.311,320.998z"/>
			<path style="fill:#424242;" d="M341.231,411.158c0-3.885,1.55-7.014,4.244-8.568c2.699-1.566,6.188-1.348,9.563,0.602
				l6.999,4.039c15.582-7.156,31.732-13.458,48.417-18.746c-9.779-4.706-20.694-7.422-32.258-7.422
				c-35.38,0-65.03,24.735-72.719,57.803c11.467-7.682,23.384-14.846,35.755-21.4C341.231,413.535,341.231,411.158,341.231,411.158z
				"/>
			<path style="fill:#231F20;" d="M430.655,460.912c4.908-2.83,4.908-7.469,0-10.289l-29.713-17.158
				c-4.894-2.838-12.924-7.459-17.823-10.293l-29.716-17.156c-4.896-2.83-8.911-0.512-8.911,5.154v34.301c0,5.67,0,14.936,0,20.596
				v34.311c0,5.66,4.015,7.963,8.911,5.133l29.716-17.143c4.899-2.832,12.929-7.471,17.823-10.307L430.655,460.912z"/>
			<path style="fill:#FBE1BA;" d="M347.924,406.818c-1.147,0.662-1.805,2.252-1.798,4.352v89.207c0,2.094,0.65,3.672,1.798,4.336
				c1.145,0.662,2.853,0.438,4.665-0.619l29.717-17.139l47.535-27.453c1.818-1.049,2.863-2.414,2.863-3.74
				c0-1.32-1.045-2.676-2.863-3.728l-77.246-44.602C350.777,406.375,349.069,406.156,347.924,406.818z"/>
			<path style="fill:#DEC5A5;" d="M290.073,448.279c3.269-2.389,6.555-4.752,9.908-7.049c6.855-36.967,39.289-65.065,78.214-65.065
				c13.9,0,26.961,3.597,38.343,9.881c3.835-1.134,7.686-2.246,11.579-3.278c-14.225-9.76-31.406-15.494-49.922-15.494
				C331.926,367.275,293.904,402.982,290.073,448.279z"/>
			<path style="fill:#DEC5A5;" d="M347.924,406.818c-1.147,0.662-1.805,2.252-1.798,4.352v2.785c3.18-1.604,6.379-3.178,9.614-4.711
				l-3.146-1.813C350.777,406.375,349.069,406.156,347.924,406.818z"/>
			<polygon style="fill:#FBE1BA;" points="559.206,117.32 626.759,170.139 626.835,170.627 566.537,181.236 498.459,128.007 			"/>
			<polygon style="fill:#FBE1BA;" points="308.785,161.374 376.843,214.601 316.107,225.287 248.037,172.047 			"/>
			<polygon style="fill:#FBE1BA;" points="183.561,183.402 251.631,236.626 190.895,247.313 122.813,194.083 			"/>
			<polygon style="fill:#FBE1BA;" points="433.982,139.344 502.063,192.574 441.314,203.254 373.249,150.032 			"/>
			<polygon style="fill:#2C2E36;" points="615.706,107.381 626.759,170.139 559.206,117.32 			"/>
			<polygon style="fill:#2C2E36;" points="498.459,128.007 566.537,181.236 502.063,192.574 433.982,139.344 			"/>
			<polygon style="fill:#2C2E36;" points="373.249,150.032 441.314,203.254 376.843,214.601 308.785,161.374 			"/>
			<polygon style="fill:#2C2E36;" points="248.037,172.047 316.107,225.287 251.631,236.626 183.561,183.402 			"/>
			<polygon style="fill:#2C2E36;" points="122.331,194.167 122.813,194.083 190.895,247.313 133.473,257.415 			"/>
			<g>
				<polygon style="fill:#FFFCE8;" points="562.788,120.021 568.73,124.67 507.994,135.356 502.039,130.706 				"/>
				<polygon style="fill:#FFFCE8;" points="437.565,142.05 443.529,146.7 382.782,157.381 376.831,152.731 				"/>
				<polygon style="fill:#FFFCE8;" points="312.367,164.075 318.309,168.724 257.561,179.405 251.631,174.761 				"/>
				<polygon style="fill:#EDEDEE;" points="187.156,186.105 193.085,190.749 132.338,201.434 126.397,196.785 				"/>
			</g>
			<g>
				<polygon style="fill:#525760;" points="616.279,110.616 617.259,116.136 568.73,124.67 562.788,120.021 				"/>
				<polygon style="fill:#525760;" points="502.039,130.706 507.994,135.356 443.529,146.7 437.565,142.05 				"/>
				<polygon style="fill:#525760;" points="376.831,152.731 382.782,157.381 318.309,168.724 312.367,164.075 				"/>
				<polygon style="fill:#525760;" points="251.631,174.761 257.561,179.405 193.085,190.749 187.156,186.105 				"/>
				<polygon style="fill:#525760;" points="132.338,201.434 123.893,202.922 122.915,197.397 126.397,196.785 				"/>
			</g>
			<polygon style="fill:#FBE1BA;" points="190.356,257.454 132.99,321.177 132.99,321.678 194.219,321.678 252.023,257.454 			"/>
			<polygon style="fill:#FBE1BA;" points="444.641,257.454 386.807,321.678 448.48,321.678 506.32,257.454 			"/>
			<polygon style="fill:#FBE1BA;" points="571.76,257.454 513.955,321.678 575.625,321.678 633.44,257.454 			"/>
			<polygon style="fill:#FBE1BA;" points="317.499,257.454 259.673,321.678 321.352,321.678 379.167,257.454 			"/>
			<polygon style="fill:#2C2E36;" points="252.023,257.454 194.219,321.678 259.673,321.678 317.499,257.454 			"/>
			<polygon style="fill:#2C2E36;" points="379.167,257.454 321.352,321.678 386.807,321.678 444.641,257.454 			"/>
			<polygon style="fill:#2C2E36;" points="506.32,257.454 448.48,321.678 513.955,321.678 571.76,257.454 			"/>
			<polygon style="fill:#2C2E36;" points="633.934,257.454 633.44,257.454 575.625,321.678 633.934,321.678 			"/>
			<g>
				<polygon style="fill:#EDEDEE;" points="187.302,260.738 182.248,266.349 243.915,266.349 248.969,260.738 				"/>
				<polygon style="fill:#FFFCE8;" points="314.444,260.738 309.391,266.349 371.06,266.349 376.112,260.738 				"/>
				<polygon style="fill:#FFFCE8;" points="441.576,260.738 436.534,266.349 498.199,266.349 503.257,260.738 				"/>
				<polygon style="fill:#FFFCE8;" points="568.709,260.738 563.652,266.349 625.332,266.349 630.384,260.738 				"/>
			</g>
			<g>
				<polygon style="fill:#525760;" points="248.969,260.738 243.915,266.349 309.391,266.349 314.444,260.738 				"/>
				<polygon style="fill:#525760;" points="376.112,260.738 371.06,266.349 436.534,266.349 441.576,260.738 				"/>
				<polygon style="fill:#525760;" points="503.257,260.738 498.199,266.349 563.652,266.349 568.709,260.738 				"/>
				<polygon style="fill:#525760;" points="625.332,266.349 633.934,266.349 633.934,260.738 630.384,260.738 				"/>
			</g>
			<g>
				<path style="fill:#525760;" d="M162.194,185.396l-15.185,1.034c-13.051,0.886-23.663,13.246-23.663,27.539v84.904
					c0,14.701,10.928,26.662,24.394,26.662h77.683c13.454,0,24.405-11.961,24.405-26.662v-7.962c0-10.326-3.885-24.664-9.029-33.334
					l-0.562-0.938l-48.798-56.2l1.258,1.745C186.552,191.843,173.445,184.623,162.194,185.396z"/>
				<path style="fill:#2C2E36;" d="M147.706,198.525c-7.29,0.499-13.286,7.451-13.286,15.443v84.904
					c0,8.003,6.007,14.544,13.319,14.544h77.683c7.323,0,13.308-6.541,13.308-14.544v-7.962c0-7.996-3.257-20.03-7.243-26.741
					l-48.089-55.392c-3.988-6.716-13.209-11.785-20.519-11.296L147.706,198.525z"/>
				<path style="fill:#CCAE8B;" d="M167.939,220.427c0,5.327-3.965,9.651-8.849,9.651c-4.885,0-8.828-4.324-8.828-9.651
					c0-5.336,3.943-9.666,8.828-9.666C163.974,210.761,167.939,215.091,167.939,220.427z"/>
				<path style="fill:#CCAE8B;" d="M167.939,293.089c0,5.341-3.965,9.663-8.849,9.663c-4.885,0-8.828-4.322-8.828-9.663
					c0-5.334,3.943-9.654,8.828-9.654C163.974,283.435,167.939,287.755,167.939,293.089z"/>
				<path style="fill:#CCAE8B;" d="M226.609,293.089c0,5.341-3.965,9.663-8.828,9.663c-4.896,0-8.849-4.322-8.849-9.663
					c0-5.334,3.953-9.654,8.849-9.654C222.644,283.435,226.609,287.755,226.609,293.089z"/>
			</g>
			<rect x="200.184" y="335.615" style="fill:#FBE1BA;" width="347.578" height="3.144"/>
		</g>
		<path style="fill:#FBE1BA;" d="M162.344,218.816c0,2.677-1.907,4.847-4.258,4.847c-2.352,0-4.258-2.17-4.258-4.847
			c0-2.678,1.906-4.847,4.258-4.847C160.438,213.969,162.344,216.138,162.344,218.816z"/>
		<path style="fill:#FBE1BA;" d="M161.467,291.415c0,2.234-1.577,4.044-3.523,4.044c-1.946,0-3.523-1.81-3.523-4.044
			c0-2.233,1.578-4.042,3.523-4.042C159.89,287.373,161.467,289.182,161.467,291.415z"/>
		<path style="fill:#FBE1BA;" d="M220.567,291.27c0,2.211-1.794,4.005-4.006,4.005c-2.212,0-4.005-1.793-4.005-4.005
			c0-2.213,1.793-4.007,4.005-4.007C218.773,287.263,220.567,289.057,220.567,291.27z"/>
	</g>
</g>
</svg>
