<?xml version="1.0" encoding="utf-8"?>
<!-- Generator: Adobe Illustrator 27.3.1, SVG Export Plug-In . SVG Version: 6.00 Build 0)  -->
<svg version="1.1" id="Layer_1" xmlns="http://www.w3.org/2000/svg" xmlns:xlink="http://www.w3.org/1999/xlink" x="0px" y="0px"
	 viewBox="0 0 250 100" style="enable-background:new 0 0 250 100;" xml:space="preserve">
<style type="text/css">
	.st0{fill:#FFFFFF;}
</style>
<g>
	<g>
		<path class="st0" d="M14.83,90.26c-1.92-3.18-2.88-8.28-2.88-15.21c0-19.06,0-28.6,0-47.66c0-6.93,0.96-12.36,2.89-16.16
			c1.93-3.8,4.73-5.65,8.4-5.65c3.67,0,6.47,1.81,8.4,5.33c1.92,3.52,2.88,8.45,2.88,14.86c0,3.48-0.01,5.21-0.01,8.69
			c-2.9,0.26-4.35,0.4-7.24,0.68c0-3.89,0.01-5.84,0.01-9.73c0-5.21-1.27-7.76-3.83-7.66c-2.56,0.11-3.83,2.83-3.84,8.18
			c-0.01,19.29-0.01,28.94-0.02,48.23c0,5.26,1.27,7.55,3.82,6.89c2.55-0.65,3.82-3.53,3.83-8.65c0-5.14,0.01-7.72,0.01-12.86
			c2.89-0.52,4.34-0.77,7.24-1.25c-0.01,4.65-0.01,6.97-0.01,11.62c-0.01,6.42-0.98,11.59-2.9,15.64c-1.93,4.05-4.72,6.64-8.38,7.73
			C19.53,94.39,16.75,93.43,14.83,90.26z"/>
		<path class="st0" d="M41.72,6.73c3.07-0.01,4.6-0.02,7.67-0.02c-0.04,26.23-0.08,52.45-0.13,78.68c-3.06,0.67-4.6,1.02-7.66,1.76
			C41.65,60.33,41.69,33.53,41.72,6.73z"/>
		<path class="st0" d="M57.69,6.68c3.85-0.01,5.77-0.02,9.62-0.02c2.95,18.02,4.43,26.87,7.39,44.36c0.06,0,0.08-0.01,0.14-0.01
			c0.03-17.75,0.04-26.62,0.07-44.37c2.73-0.01,4.1-0.01,6.83-0.01c-0.04,24.41-0.07,48.81-0.11,73.22
			c-3.16,0.39-4.73,0.6-7.89,1.07c-3.65-21.15-5.47-31.87-9.12-53.81c-0.06,0-0.08,0-0.14,0.01c-0.04,22.12-0.06,33.18-0.09,55.3
			c-2.73,0.48-4.1,0.73-6.83,1.26C57.6,58.01,57.65,32.34,57.69,6.68z"/>
		<path class="st0" d="M90.04,6.61c8.37-0.01,12.55-0.02,20.92-0.02c0,4.05,0,6.07-0.01,10.12c-5.3,0.03-7.95,0.06-13.25,0.12
			c-0.01,7.57-0.01,11.36-0.02,18.93c4.22-0.14,6.32-0.19,10.54-0.27c0,4.06,0,6.08-0.01,10.14c-4.22,0.11-6.33,0.18-10.54,0.37
			c-0.01,8.8-0.01,13.2-0.02,22c5.31-0.35,7.97-0.49,13.28-0.67c0,4.05,0,6.08-0.01,10.13c-8.39,0.33-12.59,0.62-20.97,1.46
			C89.98,54.81,90.01,30.71,90.04,6.61z"/>
		<path class="st0" d="M117.93,6.59c3.07,0,4.6,0,7.67,0c0,20.17,0,40.35,0,60.52c5.06,0.01,7.59,0.06,12.65,0.23
			c0,4.05,0,6.08,0.01,10.13c-8.14-0.32-12.21-0.37-20.35-0.21C117.92,53.7,117.93,30.15,117.93,6.59z"/>
		<path class="st0" d="M146.72,74.25c-2.01-3.25-3.01-7.69-3.02-13.38c-0.01-14.96-0.02-22.44-0.03-37.4
			c0-5.69,0.99-10.08,2.99-13.2c2-3.12,4.88-4.69,8.64-4.69s6.65,1.58,8.65,4.79c2,3.2,3.01,7.76,3.02,13.62
			c0.02,15.39,0.03,23.09,0.06,38.48c0.01,5.86-0.99,10.28-2.98,13.25c-2,2.97-4.88,4.23-8.66,3.89
			C151.62,79.27,148.73,77.49,146.72,74.25z M159.35,62.53c-0.02-15.79-0.03-23.69-0.05-39.48c-0.01-4.75-1.34-7.15-3.99-7.18
			c-2.65-0.03-3.97,2.31-3.97,7.01c0.02,15.64,0.02,23.46,0.04,39.1c0.01,4.71,1.33,7.15,3.99,7.35
			C158.04,69.53,159.36,67.28,159.35,62.53z"/>
		<path class="st0" d="M177.25,77.39c-2.01-3.56-3.01-8.26-3.02-14.19c-0.03-15.59-0.04-23.39-0.06-38.98
			c-0.01-5.93,0.98-10.49,2.98-13.74c1.99-3.25,4.87-4.9,8.64-4.9s6.65,1.67,8.66,5.1c2,3.42,3.01,8.31,3.02,14.57
			c0.03,16.45,0.04,24.68,0.07,41.13c0.01,6.26-0.98,10.92-2.97,13.94c-1.99,3.02-4.87,4.11-8.64,3.43
			C182.14,83.06,179.25,80.95,177.25,77.39z M189.85,65.96c-0.03-16.75-0.04-25.12-0.07-41.87c-0.01-5.04-1.34-7.6-3.99-7.66
			c-2.65-0.07-3.97,2.38-3.96,7.33c0.03,16.44,0.04,24.66,0.07,41.1c0.01,4.95,1.34,7.61,3.99,8.02
			C188.54,73.3,189.86,71,189.85,65.96z"/>
		<path class="st0" d="M205.16,6.72c4.38,0.01,6.57,0.02,10.95,0.04c1.68,20.02,3.32,40.06,4.94,60.11
			c0.06,0.01,0.08,0.02,0.14,0.03c1.63-20.02,3.24-40.06,4.83-60.09c4.38,0.02,6.57,0.03,10.95,0.05c0,29.58,0,59.15,0,88.73
			c-2.88-0.95-4.33-1.41-7.21-2.29c-0.01-21.82-0.02-43.65-0.03-65.47c-0.06,0-0.08-0.01-0.14-0.01
			c-1.81,21.27-3.65,42.53-5.52,63.78c-2.56-0.74-3.83-1.1-6.39-1.79c-1.84-21.09-3.72-42.17-5.64-63.23
			c-0.06,0-0.08-0.01-0.14-0.01c0.03,20.58,0.05,41.16,0.08,61.74c-2.67-0.68-4.01-1.01-6.68-1.63
			C205.24,60.01,205.2,33.37,205.16,6.72z"/>
	</g>
</g>
</svg>
